# xmcd
#
# Track frame offsets: 
#        150
#        17518
#        35309
#        54294
#        84155
#        108513
#        127218
#        143490
#        166426
#        178415
#        191444
#        205125
#        224765
#        254237
#        288722
#        307099
#
# Disc length: 4321 seconds
#
# Revision: 0
# Processed by: cddbd v1.5.2PL0 Copyright (c) Steve Scherf et al.
# Submitted via: ExactAudioCopy v0.99pb5
#
DISCID=f510df10
DTITLE=British Electric Foundation - Music Of Quality And Distinction 
DTITLE=Volume 3 - Dark [CD 2 - Instrumental - Soundtracks For Imaginar
DTITLE=y Films)
DYEAR=2013
DGENRE=Synthpop
TTITLE0=Every Time I See You I Go Wild (Instrumental)
TTITLE1=Didn't I Blow Your Mind This Time (Instrumental)
TTITLE2=Don't Wanna Know (Instrumental)
TTITLE3=Picture This (Instrumental)
TTITLE4=Breathing (Instrumental)
TTITLE5=It Was A Very Good Year (Instrumental)
TTITLE6=I Wanna Be Your Dog (Instrumental)
TTITLE7=The Same Love That Made Me Laugh (Instrumental)
TTITLE8=God Only Knows (Instrumental)
TTITLE9=Make Up (Instrumental)
TTITLE10=Just Walk In My Shoes (Instrumental)
TTITLE11=The Look Of Love (Instrumental)
TTITLE12=Party Fears Two (Instrumental)
TTITLE13=Smalltown Boy (Instrumental)
TTITLE14=The Day Before You Came (Instrumental)
TTITLE15=Co-Pilot To Pilot (Instrumental)
EXTD=
EXTT0=
EXTT1=
EXTT2=
EXTT3=
EXTT4=
EXTT5=
EXTT6=
EXTT7=
EXTT8=
EXTT9=
EXTT10=
EXTT11=
EXTT12=
EXTT13=
EXTT14=
EXTT15=
PLAYORDER=
